# xmcd
#
# Track frame offsets:
#	150
#	36869
#	67048
#	78685
#	100710
#	136845
#	159442
#	188641
#	228500
#	256261
#
# Disc length: 3755 seconds
#
# Revision: 1
# Processed by: cddbd v1.5.2PL0 Copyright (c) Steve Scherf et al.
# Submitted via: audiograbber 1.83.01
#
DISCID=7d0ea90a
DTITLE=Grateful Dead - 82-12-26 Oakland Auditorium Arena, Oakland CA
DYEAR=1900
DGENRE=
TTITLE0=Minglewood Blues
TTITLE1=Peggy-O
TTITLE2=Mama Tried
TTITLE3=Mexicali Blues
TTITLE4=Althea
TTITLE5=Cassidy
TTITLE6=Candyman
TTITLE7=It's All Over Now
TTITLE8=China Cat Sunflower
TTITLE9=I Know You Rider
EXTD=
EXTT0=
EXTT1=
EXTT2=
EXTT3=
EXTT4=
EXTT5=
EXTT6=
EXTT7=
EXTT8=
EXTT9=
PLAYORDER=
